# xmcd CD database file
#
# Track frame offsets:
#	150
#	11906
#	22338
#	32109
#	43576
#	53060
#	65617
#	75707
#	86561
#	97296
#
# Disc length: 1407 seconds
#
# Revision: 0
# Processed by: cddbd v1.5.2PL0 Copyright (c) Steve Scherf et al.
# Submitted via: CDex 1.70beta2
#
DISCID=87057d0a
DTITLE=Connie Smith - Connie in the Country
DYEAR=1900
DGENRE=Country
TTITLE0=Cry, Cry, Cry
TTITLE1=Foolin' Around
TTITLE2=World of Forgotten People
TTITLE3=I'm Little But I'm Loud
TTITLE4=Slowly
TTITLE5=I Overlooked an Orchid (While Searching for a Rose)
TTITLE6=A-Sleepin' at the Foot of the Bed
TTITLE7=You Ain't Woman Enough (To Take My Man)
TTITLE8=Y'all Come
TTITLE9=Love's Gonna Live Here
EXTD=
EXTT0=
EXTT1=
EXTT2=
EXTT3=
EXTT4=
EXTT5=
EXTT6=
EXTT7=
EXTT8=
EXTT9=
PLAYORDER=
